<svg width="242" height="50" viewBox="0 0 242 50" fill="none" xmlns="http://www.w3.org/2000/svg">
<path d="M0 0H24.2411C23.7886 0.113744 23.3409 0.0627962 22.869 0.119668C18.4949 0.562796 14.2526 2.13863 10.6843 4.65403C5.91085 7.9846 2.37402 12.9467 0.86031 18.4941C0.44649 20.0237 0.14641 21.5995 0.06897 23.1813H0V0Z" fill="white"/>
<path d="M24.2411 0H27.3569L27.4198 0.0651659C34.1716 0.472749 40.627 3.74171 44.9914 8.78555C47.4828 11.6339 49.299 15.0391 50.2682 18.6671C51.4081 22.9479 51.3693 27.5403 50.1424 31.7986C48.4278 37.8211 44.3078 43.0948 38.864 46.3495C35.8221 48.1813 32.4002 49.3483 28.8621 49.8152C28.3346 49.9017 27.8094 49.859 27.3 50H24.1528L24.154 49.9336C23.3167 49.9455 22.4866 49.8554 21.6614 49.7287C17.7446 49.1434 13.9803 47.6505 10.7545 45.3969C5.43774 41.7121 1.64197 36.0272 0.45133 29.7441C0.25652 28.7998 0.09801 27.8614 0.07865 26.8946C0.07623 26.6765 0.05324 26.4727 0 26.2607V23.1813H0.06897C0.14641 21.5995 0.44649 20.0237 0.86031 18.4941C2.37402 12.9467 5.91085 7.9846 10.6843 4.65403C14.2526 2.13863 18.4949 0.562796 22.869 0.119668C23.3409 0.0627962 23.7886 0.113744 24.2411 0Z" fill="#0157B6"/>
<path d="M27.3569 0H242V35.8187C241.864 35.5355 241.742 35.25 241.635 34.9562C240.357 31.7062 239.077 28.4562 237.795 25.2073C237.698 24.9502 237.559 24.6825 237.524 24.4088C237.576 24.1374 237.701 23.8732 237.8 23.6137C238.963 20.5675 240.122 17.5118 241.287 14.4668C241.342 14.3175 241.373 14.1635 241.406 14.0083C239.564 14.0036 237.72 13.981 235.88 14.0201C234.948 16.6493 233.937 19.2536 232.996 21.8803C232.625 21.9064 232.255 21.9052 231.884 21.8839C231.858 21.064 231.958 20.2512 231.938 19.4313C231.928 17.6256 231.955 15.8187 231.924 14.0142C230.219 13.9964 228.508 13.9834 226.805 14.0201C226.801 21.3057 226.818 28.5995 226.796 35.8851C227.407 36.019 228.066 35.9242 228.69 35.9514C229.768 35.9265 230.862 36.0036 231.935 35.91C231.938 33.66 231.938 31.3969 231.936 29.1457C231.887 28.4822 231.884 27.827 231.882 27.1611C232.253 27.1339 232.652 27.0995 233.022 27.1564C233.139 27.2417 233.166 27.4301 233.22 27.5581C234.123 30.2891 235.045 33.0474 235.957 35.7761C236.015 35.9668 236.138 35.9668 236.313 35.9704C237.806 35.9668 239.296 35.968 240.79 35.968C241.195 35.9656 241.596 35.9514 242 36V50H27.3C27.8095 49.859 28.3346 49.9017 28.8622 49.8152C32.4002 49.3483 35.8221 48.1813 38.864 46.3495C44.3078 43.0948 48.4279 37.8211 50.1424 31.7986C51.3694 27.5403 51.4081 22.9479 50.2683 18.6671C49.2991 15.0391 47.4828 11.6339 44.9915 8.78555C40.627 3.74171 34.1716 0.472749 27.4198 0.0651659L27.3569 0Z" fill="white"/>
<path d="M37.1179 3.69894C39.9251 5.15984 42.4117 7.16577 44.4541 9.5461C46.9794 12.4916 48.7557 16.0283 49.6172 19.7795C50.267 22.7132 50.3916 25.7475 49.9052 28.7143C49.0763 33.9916 46.3901 38.9501 42.3971 42.5805C40.6959 44.167 38.7357 45.5046 36.64 46.5425C31.8387 48.9335 26.2219 49.7191 20.9329 48.7037C16.2454 47.8376 11.8471 45.5923 8.42518 42.3388C4.52413 38.6752 1.90933 33.7345 1.14824 28.4892C0.240735 22.6681 1.66612 16.552 5.01419 11.6646C7.06998 8.63496 9.82999 6.07691 13.0256 4.22146C15.8776 2.5698 19.0913 1.46909 22.3813 1.06743C27.4064 0.393256 32.653 1.35179 37.1179 3.69894Z" fill="white"/>
<path d="M30.2269 6.90985C32.4981 7.39681 34.7753 8.31743 36.5165 9.85771C36.9654 10.2511 37.2716 10.7345 37.4773 11.2854C37.5571 11.5473 37.7773 11.6053 37.9951 11.7321C38.7974 12.1373 39.5548 12.6231 40.2312 13.2108C40.9137 13.8305 41.5283 14.5627 41.5368 15.5212C41.5695 15.7452 41.4642 16.0899 41.5804 16.2783C41.9954 16.5852 42.4274 16.847 42.7674 17.2428C43.4982 17.9963 43.831 19.1125 43.664 20.135C43.6023 20.4975 43.4002 20.7523 43.2453 21.0734C43.5866 21.4181 43.9641 21.6859 44.1952 22.1255C44.6961 22.9525 44.5473 23.9134 44.1419 24.7428C43.5248 25.9264 42.5496 26.8234 41.4001 27.5082C39.2269 28.8162 36.7997 29.738 34.3107 30.2783C30.3903 31.1847 26.4409 31.7416 22.4745 32.3992C22.5568 32.4845 22.6499 32.5414 22.754 32.5686C24.8134 33.0497 26.9224 33.289 29.0399 33.3044C31.2942 33.3589 33.5278 33.0805 35.7264 32.6065C38.5505 31.9833 41.319 31.0449 43.9108 29.7783C43.8431 30.0639 43.7717 30.3802 43.6216 30.635C43.4898 30.7795 43.2853 30.8672 43.1159 30.9643C39.9977 32.635 36.4597 33.5805 32.9761 34.1788C30.8876 34.5094 28.8367 34.7309 26.7179 34.5378C24.2241 34.3707 21.763 33.9809 19.3648 33.2843C19.1313 33.225 18.8893 33.1279 18.6473 33.1942C17.9043 33.3933 17.1698 33.6373 16.4559 33.9241C16.7839 34.1456 17.1311 34.2463 17.4965 34.4039C19.7955 35.3447 22.2155 35.9537 24.69 36.2274C26.77 36.5034 28.8609 36.6042 30.9542 36.4371C34.2962 36.1575 37.6079 35.5046 40.8036 34.5082C41.2331 34.379 41.636 34.2037 42.0801 34.1219C41.8792 34.443 41.6808 34.8459 41.313 35.0046C40.6559 35.3305 39.9529 35.5935 39.2596 35.8388C36.8638 36.6658 34.399 37.2416 31.8871 37.6101C30.9372 37.7357 29.9837 37.7001 29.0339 37.7606C28.5039 37.8162 27.9957 37.7238 27.4669 37.7274C25.6531 37.7025 23.8357 37.5603 22.0449 37.2748C19.6576 36.8684 17.3768 36.1053 15.1649 35.1516C15.0281 35.1089 14.7982 34.9726 14.6772 35.0959C14.4401 35.2854 14.2489 35.6136 14.1799 35.9039C14.1303 36.039 14.3893 36.1148 14.4776 36.1788C18.5214 38.2072 22.9101 39.4537 27.4718 39.5106C30.9989 39.6113 34.5503 39.026 37.9407 38.0982C38.4368 37.9809 38.9051 37.7795 39.406 37.7049C39.0599 38.0319 38.6897 38.4596 38.2299 38.6219C35.1153 39.8162 31.7806 40.6587 28.4301 40.8068C27.5105 40.879 26.5691 40.8838 25.6507 40.8139C21.9699 40.6646 18.2867 39.6278 14.9834 38.0508C14.8442 37.9869 14.6966 37.9572 14.5466 37.9252C15.3016 38.7143 16.2684 39.3506 17.2134 39.9004C19.9274 41.4667 22.9645 42.4371 26.1359 42.4181C28.5705 42.4632 31.0243 42.1741 33.379 41.571C33.7964 41.462 34.1764 41.2997 34.6071 41.2416C34.4474 41.3696 34.2696 41.4655 34.0856 41.5544C30.8501 43.257 27.1027 43.8127 23.4715 43.411C19.9359 43.0485 16.4971 41.7451 13.8 39.4466C13.2507 39.0177 12.7727 38.5319 12.4799 37.8968C12.2972 37.539 12.2379 37.1326 12.0588 36.776C11.1961 36.2712 10.3805 35.7925 9.72955 35.0188C9.39922 34.6124 8.9975 34.1326 8.87529 33.6172C8.77607 33.0165 8.81358 32.4087 9.01928 31.8328C9.08583 31.6907 8.90312 31.6125 8.81721 31.5331C8.17349 31.0686 7.45354 30.5508 7.23453 29.7558C7.00826 29.0508 7.18976 28.3802 7.52251 27.744C7.69917 27.5129 7.37126 27.3186 7.26236 27.1314C6.46739 26.2238 6.4565 24.8091 6.97438 23.7724C7.51888 22.6361 8.52923 21.693 9.56741 20.9833C11.5651 19.6539 14.071 18.8613 16.3616 18.1575C18.1814 17.5959 20.04 17.2179 21.9034 16.8293C25.2357 16.0414 28.4482 15.8814 31.691 14.9205C31.8375 14.879 31.9681 14.8103 32.094 14.7298C29.9317 14.3589 27.7259 14.1883 25.5309 14.1966C19.3297 14.2155 13.1055 15.8767 7.92302 19.2523C7.79355 19.3352 7.65198 19.3956 7.50799 19.4513C7.60479 19.0485 7.7391 18.6516 7.88672 18.2641C7.93633 18.1018 8.12509 18.0082 8.25819 17.917C9.73681 17.0023 11.2663 16.1397 12.8647 15.4407C15.9756 14.0414 19.3345 13.2072 22.7443 12.9395C24.2495 12.8518 25.7124 12.7452 27.2201 12.8625C29.1936 12.9181 31.1635 13.1326 33.1104 13.443C33.3959 13.4809 33.7117 13.5734 33.9961 13.526C34.4982 13.2878 34.929 12.8411 35.0924 12.3139C35.1758 12.0816 35.0306 12.0378 34.8443 11.9679C31.7515 10.9335 28.5378 10.6693 25.2889 10.6622C23.382 10.6338 21.5646 10.9229 19.6939 11.2238C17.4373 11.648 15.1818 12.2096 13.0232 12.9904C12.2512 13.2748 11.4816 13.5876 10.7544 13.9679C10.5608 14.0698 10.366 14.1539 10.1567 14.2191C10.3926 13.7724 10.775 13.3861 11.1005 12.9999C11.6583 12.5757 12.3831 12.3257 13.0244 12.0425C15.909 10.9146 18.9461 10.1409 22.0147 9.68354C23.5804 9.44539 25.157 9.34586 26.7409 9.3589C28.8246 9.3352 30.9009 9.5615 32.9265 10.0449C33.6525 10.1895 34.3639 10.4324 35.0972 10.5366C34.854 10.0935 34.3349 9.80558 33.8945 9.58046C33.2677 9.27596 32.6361 8.97383 31.9814 8.73212C30.4399 8.17762 28.8342 7.89089 27.2019 7.75819C23.4159 7.47027 19.5354 7.95487 15.9659 9.23686C15.5569 9.38022 15.1758 9.5698 14.7632 9.69657C15.0039 9.44302 15.298 9.28899 15.5956 9.1089C17.6333 7.92643 19.9262 7.21316 22.2555 6.83994C24.909 6.44658 27.5904 6.3435 30.2269 6.90985Z" fill="#0157B6"/>
<path d="M37.3806 13.0533C37.7533 13.2536 38.0848 13.5415 38.3946 13.8259C38.7213 14.1552 39.0468 14.4751 39.1085 14.9526C38.852 14.942 38.6245 14.8756 38.3885 14.7832C37.7775 14.5486 37.1507 14.3721 36.5227 14.186C36.6788 13.878 36.9244 13.6422 37.1035 13.3484C37.1809 13.2666 37.2499 13.0368 37.3806 13.0533Z" fill="white"/>
<path d="M98.2557 13.647C99.7718 13.7537 101.22 14.2702 102.28 15.3686C103.702 16.8496 104.115 18.9894 103.651 20.9373C103.343 22.2146 102.546 23.3556 101.426 24.0795C101.179 24.2418 100.878 24.3449 100.654 24.5357C100.633 24.7643 101.162 24.8437 101.325 24.9551C102.45 25.4883 103.37 26.4764 103.798 27.6281C104.267 28.8887 104.269 30.2063 104.038 31.5143C103.77 32.8686 103.046 34.1399 101.929 34.9954C100.665 35.9859 99.0095 36.4231 97.4051 36.384C95.7341 36.4053 94.0485 36.1056 92.5917 35.2774C92.5167 35.0676 92.5481 34.8176 92.5409 34.5973C92.5627 33.2939 92.5748 31.9918 92.5953 30.6885C93.3915 30.9326 94.1381 31.23 94.9839 31.2904C95.7692 31.339 96.6779 31.4385 97.376 31.0155C98.4021 30.4492 98.7155 29.0025 98.027 28.0676C97.6071 27.5096 96.8763 27.2857 96.1963 27.2466C95.3868 27.2134 94.5749 27.2406 93.7654 27.23C93.6831 26.6553 93.7376 26.0582 93.723 25.474C93.7412 24.4906 93.6831 23.5001 93.7545 22.5202C94.4466 22.5013 95.14 22.5179 95.8321 22.5131C96.6125 22.5108 97.4317 22.2075 97.9157 21.589C98.3634 21.0297 98.3936 20.1755 98.1565 19.5285C97.877 18.8627 97.2381 18.5155 96.5399 18.3994C95.3517 18.2525 94.2833 18.5499 93.187 18.9598C93.1471 17.4977 93.1689 16.0333 93.1314 14.5712C93.1362 14.3864 93.0854 14.1956 93.325 14.1435C94.927 13.7513 96.6041 13.5641 98.2557 13.647Z" fill="#0157B6"/>
<path d="M148.23 13.7714C149.861 13.9965 151.393 14.7548 152.482 15.9752C154.041 17.6991 154.73 20.0072 155.044 22.2453C155.202 23.6387 155.292 25.0285 155.157 26.4278C155.015 28.5297 154.545 30.7738 153.457 32.6126C152.602 34.0569 151.316 35.2382 149.688 35.7915C147.77 36.4337 145.577 36.3792 143.718 35.5735C142.207 34.9053 141.066 33.7051 140.311 32.2761C139.364 30.5321 138.991 28.6103 138.809 26.6624C138.653 23.7359 138.802 20.8828 140.041 18.1695C140.749 16.647 141.81 15.3247 143.337 14.5273C144.863 13.7181 146.531 13.6008 148.23 13.7714Z" fill="#0157B6"/>
<path d="M65.5034 14.0224C65.8894 13.9845 66.2839 14.0011 66.6711 13.9999C69.8207 14.0023 72.9703 13.9987 76.1188 14.0023C76.149 14.231 76.1684 14.4608 76.1659 14.6919C76.1563 15.8376 76.1647 16.9822 76.1611 18.1279C76.1575 18.5995 76.1902 19.0604 76.1188 19.5284C74.351 19.5485 72.5747 19.494 70.8081 19.5568C70.8008 24.5307 70.8081 29.5047 70.8044 34.4786C70.8057 34.9596 70.8141 35.4407 70.7887 35.9217C69.7433 35.9893 68.687 35.9336 67.6391 35.9513C66.9228 35.9324 66.1944 35.9976 65.4829 35.9099C65.4792 28.9952 65.4817 22.0805 65.4805 15.1658C65.4817 14.7867 65.4647 14.4004 65.5034 14.0224Z" fill="#0157B6"/>
<path d="M80.0125 14.0201C80.2399 13.9929 80.4771 13.9976 80.707 13.9976C82.5982 14.0107 84.4979 13.987 86.388 14.0083C86.5586 13.9775 86.5876 14.2275 86.6263 14.34C86.9179 15.686 87.1164 17.0474 87.4382 18.3886C88.3106 22.7654 89.2254 27.1434 90.1087 31.5201C90.3592 32.9917 90.7161 34.4443 90.9835 35.9123C90.0663 36 89.131 35.9289 88.209 35.9514C87.3741 35.9289 86.5259 36.0012 85.6958 35.91C85.4986 34.6765 85.3135 33.4384 85.0654 32.2133C84.5076 32.141 83.9389 32.1884 83.369 32.1765C82.7362 32.1943 82.0876 32.1303 81.4633 32.2228C81.2793 33.3803 81.0736 34.5391 80.8655 35.6943C80.8341 36.0604 80.4844 35.9242 80.223 35.9562C78.6839 35.9277 77.1363 35.9917 75.5984 35.923C75.6081 35.6848 75.6274 35.4479 75.6758 35.2133C76.3292 32.0284 76.979 28.8744 77.6263 25.6872C78.3318 22.0486 79.0808 18.4384 79.8249 14.8069C79.8757 14.545 79.9145 14.269 80.0125 14.0201Z" fill="#0157B6"/>
<path d="M106.629 14.0143C106.941 13.9894 107.257 14.0001 107.569 14.0001C111.963 14.0036 116.356 13.9965 120.751 14.0036C120.783 14.3911 120.785 14.7785 120.779 15.166C120.777 21.6032 120.779 28.0415 120.777 34.4787C120.773 34.9823 120.808 35.4752 120.735 35.9752C119.018 35.9622 117.3 35.9645 115.583 35.974C115.57 35.7915 115.559 35.6103 115.555 35.4266C115.555 30.6482 115.555 25.8686 115.555 21.0901C115.551 20.5048 115.57 19.9219 115.537 19.3366C114.299 19.3295 113.06 19.3306 111.822 19.3366C111.799 19.7631 111.8 20.1896 111.804 20.6162C111.804 25.3164 111.804 30.0155 111.804 34.7157C111.809 35.1363 111.811 35.5558 111.775 35.974C110.06 35.9633 108.345 35.9633 106.629 35.974C106.594 35.5558 106.596 35.1363 106.601 34.7157C106.601 28.1991 106.601 21.6825 106.601 15.166C106.603 14.7844 106.579 14.3923 106.629 14.0143Z" fill="#0157B6"/>
<path d="M123.718 14.025C124.098 13.9835 124.49 14.0013 124.872 14.0001C126.768 14.0013 128.663 14.0013 130.559 14.0001C131.357 14.0179 132.183 14.1032 132.932 14.3828C134.242 14.8319 135.317 15.7513 136.065 16.8828C136.977 18.3105 137.463 19.9954 137.38 21.6826C137.309 23.5309 136.642 25.4705 135.361 26.8556C134.32 27.9563 132.813 28.6281 131.285 28.7015C130.525 28.7418 129.762 28.7264 129.002 28.7146C128.963 28.897 128.928 29.0783 128.931 29.2655C128.939 31.397 128.931 33.5309 128.935 35.6636C128.941 35.8165 128.918 35.9657 128.728 35.9646C127.128 35.9705 125.521 35.9705 123.92 35.9646C123.73 35.9657 123.707 35.8165 123.713 35.6636C123.718 28.4515 123.709 21.2383 123.718 14.025Z" fill="#0157B6"/>
<path d="M157.691 14.0143C159.011 13.98 160.337 14.0143 161.658 13.9977C161.868 14.0214 162.087 13.9444 162.21 14.1518C163.375 15.6932 164.543 17.2394 165.7 18.7868C165.788 18.8911 165.876 19.0439 166.011 19.0913C166.094 19.012 166.173 18.9255 166.246 18.833C167.295 17.4515 168.347 16.0712 169.399 14.692C169.569 14.4693 169.725 14.224 169.926 14.0262C170.189 13.9847 170.465 14.0001 170.731 13.9989C171.93 14.0108 173.129 13.9835 174.328 14.0143C174.342 14.4373 174.345 14.8603 174.34 15.2845C174.34 22.1601 174.343 29.0356 174.339 35.9101C173.226 36.0037 172.092 35.9266 170.973 35.9515C170.349 35.9243 169.69 36.0191 169.079 35.8852C169.104 31.7845 169.078 27.6802 169.093 23.5783C169.097 23.2987 169.087 23.0202 169.048 22.7418C168.961 22.82 168.877 22.9018 168.797 22.9871C167.858 24.1245 166.946 25.2856 165.985 26.4065C165.045 25.2856 164.132 24.1399 163.201 23.0108C163.109 22.9077 163.005 22.82 162.899 22.7323C162.868 26.6458 162.895 30.5653 162.885 34.4788C162.881 34.9823 162.916 35.4752 162.843 35.9752C161.126 35.9622 159.408 35.9646 157.691 35.974C157.64 35.3958 157.669 34.8212 157.663 34.2418C157.663 27.8828 157.663 21.525 157.663 15.166C157.665 14.7845 157.641 14.3923 157.691 14.0143Z" fill="#0157B6"/>
<path d="M177.805 14.025C178.145 13.9871 178.496 14.0001 178.838 14.0001C182.466 14.0036 186.093 13.9965 189.721 14.0036C189.778 14.7039 189.737 15.4112 189.749 16.1138C189.737 17.1766 189.772 18.2418 189.73 19.3034C187.464 19.3318 185.197 19.2963 182.932 19.3212C182.879 20.2453 182.881 21.2359 182.931 22.16C184.18 22.179 185.349 22.1695 186.567 22.5285C187.612 22.8176 188.58 23.3058 189.342 24.0747C190.142 24.8638 190.631 25.9302 190.833 27.0143C191.039 28.083 191.027 29.2027 190.88 30.2785C190.642 31.884 189.903 33.4077 188.586 34.429C187.215 35.4906 185.533 35.9408 183.803 35.9681C181.873 35.9645 179.935 35.974 178.007 35.9645C177.817 35.9657 177.794 35.8164 177.8 35.6636C177.805 28.4717 177.797 21.2098 177.805 14.025Z" fill="#0157B6"/>
<path d="M209.628 14.0248C210.21 13.9715 210.803 14.013 211.387 14.0011C212.5 14.0094 213.616 13.9822 214.728 14.0153C214.715 16.3341 214.729 18.6528 214.722 20.9715C214.715 21.2855 214.721 21.5983 214.755 21.9111C215.931 21.9229 217.109 21.9277 218.285 21.9099C218.337 19.2796 218.274 16.6445 218.318 14.013C220.022 13.994 221.736 13.9893 223.44 14.0153C223.434 21.3033 223.427 28.5971 223.445 35.885C223.258 35.9229 223.073 35.9573 222.882 35.9549C221.833 35.9478 220.785 35.9537 219.736 35.9514C219.255 35.9478 218.784 35.9786 218.306 35.9099C218.302 33.4194 218.306 30.9277 218.303 28.436C218.308 28.0082 218.314 27.5817 218.277 27.1552C217.106 27.1492 215.935 27.1528 214.765 27.1528C214.745 27.3033 214.732 27.4537 214.723 27.6054C214.719 30.3187 214.729 33.0544 214.719 35.7665C214.721 35.9525 214.568 35.9751 214.412 35.9691C212.886 35.9644 211.356 35.9739 209.83 35.9644C209.64 35.9656 209.617 35.8163 209.623 35.6634C209.628 28.4585 209.619 21.2262 209.628 14.0248Z" fill="#0157B6"/>
<path d="M226.805 14.0202C228.509 13.9835 230.219 13.9965 231.924 14.0143C231.955 15.8188 231.928 17.6256 231.938 19.4313C231.958 20.2512 231.858 21.064 231.884 21.8839C232.255 21.9053 232.625 21.9064 232.996 21.8804C233.937 19.2536 234.948 16.6493 235.88 14.0202C237.72 13.9811 239.564 14.0036 241.406 14.0083C241.373 14.1636 241.342 14.3176 241.287 14.4669C240.122 17.5119 238.963 20.5676 237.8 23.6138C237.701 23.8733 237.576 24.1375 237.524 24.4088C237.559 24.6825 237.698 24.9503 237.795 25.2074C239.077 28.4562 240.357 31.7062 241.635 34.9562C241.742 35.25 241.865 35.5356 242 35.8188V36C241.596 35.9515 241.195 35.9657 240.79 35.9681C239.296 35.9681 237.806 35.9669 236.313 35.9704C236.138 35.9669 236.015 35.9669 235.957 35.7761C235.045 33.0474 234.123 30.2891 233.22 27.5581C233.166 27.4301 233.139 27.2418 233.022 27.1564C232.652 27.0996 232.253 27.1339 231.882 27.1612C231.884 27.8271 231.887 28.4823 231.936 29.1458C231.938 31.397 231.938 33.66 231.935 35.91C230.862 36.0036 229.768 35.9266 228.69 35.9515C228.066 35.9242 227.407 36.019 226.796 35.8851C226.818 28.5996 226.801 21.3057 226.805 14.0202Z" fill="#0157B6"/>
<path d="M196.421 14.1161C196.572 14.0142 196.811 14.0592 196.988 14.045C198.521 14.0533 200.053 14.0462 201.586 14.0486C202.065 14.0533 202.534 14.0213 203.011 14.0877C203.094 14.6599 203.233 15.2168 203.35 15.782C203.77 17.827 204.18 19.8732 204.601 21.9182C205.412 26.1765 206.328 30.4372 207.182 34.686C207.278 35.122 207.388 35.5474 207.393 35.9964C205.635 35.9941 203.874 36.0166 202.116 35.9846C201.909 34.7334 201.732 33.4716 201.466 32.2322C200.862 32.1848 200.259 32.2156 199.65 32.2073C199.047 32.218 198.472 32.1765 197.875 32.2441C197.719 33.3471 197.513 34.4443 197.345 35.5474C197.316 35.6872 197.308 35.8732 197.202 35.981C196.611 36.0272 196.009 35.9858 195.415 35.9988C194.257 35.9881 193.098 36.0237 191.941 35.9787C192.183 34.9538 192.365 33.9206 192.578 32.8898C193.876 26.6422 195.123 20.359 196.421 14.1161Z" fill="#0157B6"/>
<path d="M35.107 15.4088C36.1572 15.5996 37.199 16.019 38.1997 16.3839C38.3268 16.4503 38.645 16.5048 38.6002 16.6967C38.3824 16.9882 38.0557 17.2086 37.775 17.442C37.5669 17.5877 37.3321 17.8105 37.0538 17.7228C35.695 17.3448 34.3313 16.8448 32.929 16.6434C33.3113 16.3875 33.7481 16.2524 34.1426 16.0166C34.4802 15.8389 34.7706 15.5865 35.107 15.4088Z" fill="white"/>
<path d="M40.8944 17.8792C41.4002 18.2405 41.8383 18.7642 41.6083 19.4171C41.5563 19.6588 41.3712 19.532 41.226 19.4645C40.7759 19.2133 40.3064 19.0059 39.8357 18.7962C40.1975 18.5083 40.5157 18.1339 40.8944 17.8792Z" fill="white"/>
<path d="M30.129 18.0071C31.2265 17.981 32.3639 18.1978 33.4299 18.4431C33.8389 18.5474 34.2261 18.6019 34.6084 18.7879C28.8113 20.2903 22.8315 20.9147 17.0416 22.3684C14.6132 22.9893 11.9681 23.7642 9.91474 25.2251C9.57231 25.4419 9.30853 25.7677 8.95763 25.9621C8.56075 25.5521 8.47847 24.8305 8.74951 24.3305C9.09073 23.6137 9.79858 23.0995 10.4641 22.6872C12.077 21.7168 13.9828 21.0948 15.7857 20.5533C19.5887 19.4502 23.5055 18.7061 27.4368 18.2014C28.3358 18.0995 29.2203 17.981 30.129 18.0071Z" fill="white"/>
<path d="M129.002 18.8745C129.44 18.8437 129.883 18.8508 130.322 18.8651C130.896 18.8864 131.456 19.2146 131.72 19.7193C132.09 20.3971 132.046 21.1755 132.021 21.9219C131.982 22.538 131.739 23.2454 131.196 23.608C130.752 23.9136 130.228 23.8591 129.712 23.8722C129.476 23.8651 129.211 23.8923 128.985 23.8165C128.886 23.4824 128.947 23.0949 128.934 22.7489C128.933 21.6435 128.938 20.5369 128.931 19.4314C128.943 19.2549 128.908 19.0298 129.002 18.8745Z" fill="white"/>
<path d="M147.575 19.1243C148.312 19.3471 148.824 20.0378 149.092 20.7144C149.688 22.1919 149.72 23.9087 149.696 25.4739C149.711 26.2724 149.613 27.0615 149.476 27.8471C149.321 28.7333 148.988 29.7713 148.284 30.3886C147.488 31.0947 146.151 31.0011 145.466 30.1883C144.684 29.2997 144.425 27.9194 144.317 26.7843C144.202 25.7606 144.215 24.7203 144.263 23.6942C144.35 22.6859 144.482 21.6006 144.882 20.6611C145.122 20.1125 145.465 19.5746 146.018 19.2855C146.475 19.0212 147.071 18.9976 147.575 19.1243Z" fill="white"/>
<path d="M38.2725 19.9894C38.8787 20.2417 39.4825 20.5237 40.0427 20.865C40.229 20.9799 40.1383 21.0616 40.0016 21.1588C38.8509 21.987 37.469 22.3934 36.1247 22.8128C33.3006 23.641 30.3893 24.2441 27.4974 24.7939C24.3127 25.327 21.0421 25.7595 17.9094 26.5356C15.9879 26.9633 14.1378 27.5012 12.439 28.506C11.8303 28.2986 11.2193 27.8981 10.6736 27.5569C10.9712 27.1778 11.4698 26.9301 11.88 26.6801C14.2225 25.3863 17.0043 24.6766 19.6058 24.0842C22.3791 23.519 25.1609 23.0024 27.95 22.5225C31.0996 21.9929 34.2274 21.3768 37.2161 20.2121C37.5513 20.1043 37.9276 19.7927 38.2725 19.9894Z" fill="white"/>
<path d="M83.307 20.8922L83.3107 20.923C83.5817 23.0427 83.9471 25.1529 84.2157 27.2725C83.5865 27.314 82.9295 27.3389 82.3027 27.2548C82.5399 25.7133 82.7492 24.1671 82.9828 22.6244C83.0735 22.0368 83.1183 21.4621 83.307 20.8922Z" fill="white"/>
<path d="M199.722 20.9846C200.013 22.8223 200.255 24.6706 200.54 26.5107C200.584 26.7879 200.605 27.0664 200.613 27.3472C199.983 27.3472 199.355 27.3661 198.725 27.3306C199.022 25.359 199.339 23.3886 199.609 21.4123C199.633 21.2666 199.673 21.1244 199.722 20.9846Z" fill="white"/>
<path d="M41.8429 22.5212C42.074 22.9419 42.2035 23.3814 42.0256 23.8506C41.6953 24.7404 40.7974 25.3186 40.0001 25.7784C38.1246 26.802 35.9611 27.4407 33.8944 27.981C32.8659 28.2641 31.7757 28.449 30.7315 28.6658C28.1505 29.1563 25.5623 29.6314 22.9693 30.0556C21.4374 30.2973 19.9358 30.6682 18.4487 31.1006C18.1838 31.1824 18.0228 31.1634 17.7687 31.0603C16.8951 30.7084 16.007 30.3601 15.1684 29.9324C15.1212 29.8589 15.1515 29.8021 15.2628 29.7606C16.4401 29.3032 17.6683 28.9561 18.9073 28.6978C21.9372 27.9869 25.0541 27.6172 28.0743 27.0544C29.5311 26.8103 30.9928 26.4952 32.4327 26.1883C34.6446 25.6302 36.8976 25.1018 38.9933 24.2013C39.6637 23.8992 40.3461 23.5722 40.9511 23.1551C41.2693 22.9383 41.4944 22.6836 41.8429 22.5212Z" fill="white"/>
<path d="M0 26.2606C0.05324 26.4727 0.07623 26.6765 0.07865 26.8945C0.09801 27.8613 0.25652 28.7997 0.45133 29.744C1.64197 36.0272 5.43774 41.712 10.7545 45.3969C13.9803 47.6504 17.7446 49.1433 21.6614 49.7286C22.4866 49.8554 23.3167 49.9454 24.154 49.9336L24.1528 50H0V26.2606Z" fill="white"/>
<path d="M182.929 26.6375C183.412 26.5948 183.925 26.5759 184.403 26.6612C184.87 26.7666 185.302 27.0249 185.537 27.4443C185.912 28.0699 185.908 28.8768 185.805 29.5735C185.674 30.3436 185.216 31.0285 184.469 31.3389C183.962 31.5664 183.471 31.5214 182.931 31.5083C182.864 30.8045 182.916 30.0913 182.9 29.3839C182.916 28.4692 182.865 27.5498 182.929 26.6375Z" fill="white"/>
<path d="M9.33641 29.0248C9.79863 29.2416 10.2112 29.5426 10.6662 29.7748C10.5028 29.9999 10.3092 30.193 10.0467 30.3068C9.5772 30.0508 9.23356 29.5722 9.33641 29.0248Z" fill="white"/>
<path d="M12.9579 30.9373C13.3911 31.0605 13.7904 31.301 14.2127 31.461C14.635 31.6695 15.1396 31.7892 15.5086 32.0806C15.0234 32.2868 14.5576 32.5048 14.0953 32.756C13.932 32.8685 13.6912 32.6624 13.5387 32.5984C13.0088 32.2785 12.405 32.0368 11.9294 31.6422C12.2477 31.3863 12.5804 31.1055 12.9579 30.9373Z" fill="white"/>
<path d="M11.1295 33.2134C11.4501 33.3425 11.7393 33.5463 12.0503 33.698C12.1979 33.7857 12.4073 33.8591 12.498 34.0072C12.4 34.2454 12.2729 34.4729 12.1556 34.7027C11.8398 34.5676 11.6437 34.3248 11.4356 34.0665C11.2457 33.8058 11.0799 33.5487 11.1295 33.2134Z" fill="white"/>
</svg>
