<svg width="172" height="70" viewBox="0 0 172 70" fill="none" xmlns="http://www.w3.org/2000/svg">
<path d="M76.2259 10.7675H75.6133V60.259H76.2259V10.7675Z" fill="#3C3C3B"/>
<path d="M86.216 48.8072H85.2932V41.6302H87.402C87.8104 41.6302 88.1795 41.6735 88.5015 41.76C88.8235 41.8465 89.1024 41.9802 89.334 42.1651C89.5657 42.3499 89.7425 42.5819 89.8681 42.8611C89.9898 43.1404 90.0527 43.4746 90.0527 43.864C90.0527 44.6072 89.8131 45.1774 89.3301 45.5707C88.851 45.9639 88.1795 46.1606 87.3195 46.1606H86.2121V48.8072H86.216ZM86.216 45.3033H87.3234C87.8968 45.3033 88.3327 45.1853 88.6272 44.9533C88.9256 44.7213 89.0709 44.3673 89.0709 43.8875C89.0709 43.396 88.9217 43.042 88.6272 42.8218C88.3287 42.6016 87.8968 42.4954 87.3234 42.4954H86.216V45.3033Z" fill="#11559B"/>
<path d="M95.2442 48.9095C94.7454 48.9095 94.2978 48.823 93.8972 48.6539C93.4967 48.4848 93.155 48.237 92.8723 47.9224C92.5895 47.6039 92.3736 47.2185 92.2204 46.7584C92.0712 46.3022 91.9966 45.787 91.9966 45.2207C91.9966 44.6466 92.0751 44.1314 92.2322 43.6792C92.3893 43.223 92.6092 42.8376 92.8919 42.5191C93.1747 42.2005 93.5163 41.9567 93.909 41.7876C94.3056 41.6185 94.7376 41.532 95.2088 41.532C95.7429 41.532 96.2102 41.6224 96.6147 41.8033C97.0191 41.9842 97.3608 42.2359 97.6396 42.5623C97.9145 42.8887 98.1265 43.278 98.2679 43.7303C98.4132 44.1865 98.4839 44.682 98.4839 45.2207C98.4839 45.8303 98.4014 46.3651 98.2365 46.8252C98.0716 47.2854 97.8477 47.6707 97.5611 47.9775C97.2744 48.2842 96.9327 48.5162 96.5361 48.6736C96.1474 48.8309 95.7154 48.9095 95.2442 48.9095ZM95.3345 48.0483C96.0099 48.0483 96.5401 47.8123 96.9249 47.3365C97.3097 46.8606 97.5021 46.1567 97.5021 45.2207C97.5021 44.7292 97.4511 44.3045 97.3451 43.9505C97.239 43.5966 97.0859 43.3016 96.8895 43.0696C96.6932 42.8376 96.4497 42.6646 96.167 42.5584C95.8842 42.4483 95.5662 42.3932 95.2088 42.3932C94.8947 42.3932 94.6001 42.4522 94.3292 42.5663C94.0543 42.6842 93.8226 42.8573 93.6223 43.0893C93.426 43.3213 93.2689 43.6163 93.1511 43.9702C93.0333 44.3241 92.9783 44.741 92.9783 45.2207C92.9783 45.6927 93.0333 46.1056 93.1472 46.4595C93.2611 46.8134 93.4181 47.1123 93.6223 47.3483C93.8265 47.5842 94.0739 47.7612 94.3645 47.8752C94.659 47.9932 94.9811 48.0483 95.3345 48.0483Z" fill="#11559B"/>
<path d="M105.776 48.6146C105.58 48.7089 105.344 48.7837 105.081 48.8348C104.814 48.8859 104.523 48.9134 104.209 48.9134C103.652 48.9134 103.149 48.8309 102.709 48.6618C102.269 48.4927 101.896 48.2528 101.59 47.9382C101.284 47.6236 101.048 47.246 100.883 46.8056C100.718 46.3651 100.636 45.8696 100.636 45.3151C100.636 44.7056 100.718 44.1668 100.883 43.6949C101.048 43.223 101.284 42.8258 101.59 42.5073C101.896 42.1848 102.265 41.9449 102.701 41.7797C103.133 41.6146 103.616 41.532 104.15 41.532C104.559 41.532 104.893 41.5595 105.148 41.6185C105.403 41.6775 105.615 41.7404 105.788 41.8073L105.615 42.6174C105.391 42.5348 105.16 42.4758 104.928 42.4443C104.696 42.4089 104.468 42.3932 104.241 42.3932C103.389 42.3932 102.737 42.6331 102.289 43.1089C101.841 43.5887 101.617 44.2927 101.617 45.2207C101.617 45.6651 101.68 46.0623 101.806 46.4162C101.932 46.7662 102.112 47.0651 102.344 47.3089C102.576 47.5528 102.858 47.7376 103.192 47.8634C103.526 47.9893 103.907 48.0522 104.327 48.0522C104.551 48.0522 104.779 48.0325 105.006 47.9893C105.234 47.95 105.438 47.8831 105.615 47.7927L105.776 48.6146Z" fill="#11559B"/>
<path d="M112.212 46.892H109.153L108.458 48.8072H107.528L110.261 41.6302H111.184L113.866 48.8072H112.904L112.212 46.892ZM109.448 46.0505H111.918L110.72 42.6763H110.681L109.448 46.0505Z" fill="#11559B"/>
<path d="M117.62 48.8072H116.697V42.4915H114.576V41.6302H119.736V42.4915H117.616V48.8072H117.62Z" fill="#11559B"/>
<path d="M124.515 48.9095C124.017 48.9095 123.569 48.823 123.168 48.6539C122.768 48.4848 122.426 48.237 122.144 47.9224C121.861 47.6039 121.645 47.2185 121.492 46.7584C121.342 46.3022 121.268 45.787 121.268 45.2207C121.268 44.6466 121.346 44.1314 121.503 43.6792C121.661 43.223 121.88 42.8376 122.163 42.5191C122.446 42.2005 122.788 41.9567 123.18 41.7876C123.577 41.6185 124.009 41.532 124.48 41.532C125.014 41.532 125.481 41.6224 125.886 41.8033C126.29 41.9842 126.632 42.2359 126.911 42.5623C127.186 42.8887 127.398 43.278 127.539 43.7303C127.684 44.1865 127.755 44.682 127.755 45.2207C127.755 45.8303 127.673 46.3651 127.508 46.8252C127.343 47.2854 127.119 47.6707 126.832 47.9775C126.546 48.2842 126.204 48.5162 125.807 48.6736C125.423 48.8309 124.987 48.9095 124.515 48.9095ZM124.61 48.0483C125.285 48.0483 125.815 47.8123 126.2 47.3365C126.585 46.8606 126.777 46.1567 126.777 45.2207C126.777 44.7292 126.726 44.3045 126.62 43.9505C126.514 43.5966 126.361 43.3016 126.165 43.0696C125.968 42.8376 125.725 42.6646 125.442 42.5584C125.159 42.4483 124.841 42.3932 124.484 42.3932C124.17 42.3932 123.875 42.4522 123.604 42.5663C123.329 42.6842 123.098 42.8573 122.898 43.0893C122.701 43.3213 122.544 43.6163 122.426 43.9702C122.308 44.3241 122.253 44.741 122.253 45.2207C122.253 45.6927 122.308 46.1056 122.422 46.4595C122.536 46.8134 122.693 47.1123 122.898 47.3483C123.102 47.5842 123.349 47.7612 123.64 47.8752C123.93 47.9932 124.256 48.0483 124.61 48.0483Z" fill="#11559B"/>
<path d="M137.219 48.8072H136.296L135.857 43.1993L134.046 48.8072H133.084L131.282 43.219L130.83 48.8072H129.907L130.52 41.6302H131.647L133.583 47.8005L135.476 41.6302H136.603L137.219 48.8072Z" fill="#11559B"/>
<path d="M41.8611 39.6758C39.5717 42.2124 35.6683 42.409 33.1394 40.1084C30.6104 37.8079 30.4141 33.8871 32.6996 31.3466C34.989 28.8062 38.8963 28.6174 41.4213 30.9141C43.9503 33.2146 44.1466 37.1393 41.8611 39.6758Z" fill="url(#paint0_radial)"/>
<path d="M38.8886 14.2989C39.4069 14.8101 39.886 15.3292 40.318 15.8522C42.8037 18.8331 43.9661 21.7629 43.9661 21.7629C45.5526 22.0579 47.033 22.1404 48.4153 22.0696C48.5056 22.0657 48.5881 22.0657 48.6784 22.0579C48.7609 22.05 48.8355 22.0421 48.918 22.0343C51.9771 21.759 55.9472 20.5831 59.5757 16.9416C59.7014 16.8157 59.827 16.682 59.9488 16.5522C59.3872 15.8798 58.8099 15.2191 58.1777 14.5859C47.6299 4.05841 31.1721 3.14212 19.5876 11.8174C28.6785 7.40111 34.9773 10.4449 38.8886 14.2989Z" fill="url(#paint1_linear)"/>
<path d="M17.9501 44.3791C18.1307 43.6752 18.3427 42.9988 18.5744 42.3617C19.9096 38.7162 21.8613 36.2426 21.8613 36.2426C21.3233 34.7207 20.6518 33.3954 19.9017 32.2314C19.8546 32.1567 19.8114 32.082 19.7604 32.0072C19.7132 31.9404 19.6661 31.8775 19.619 31.8106C17.8519 29.2977 14.8517 26.4387 9.88411 25.1134C9.71133 25.0662 9.53462 25.0269 9.36183 24.9836C9.06338 25.8056 8.77672 26.6393 8.54503 27.5005C4.71626 41.9095 12.15 56.6449 25.4466 62.355C17.0901 56.6842 16.5717 49.6999 17.9501 44.3791Z" fill="url(#paint2_linear)"/>
<path d="M54.5019 47.5332C53.8029 47.7298 53.1118 47.8792 52.4442 47.9972C48.6233 48.6618 45.5093 48.2057 45.5093 48.2057C44.4608 49.4326 43.6518 50.6792 43.0196 51.9101C42.9803 51.9888 42.9371 52.0635 42.8978 52.1461C42.8625 52.2208 42.8311 52.2916 42.7997 52.3663C41.5077 55.1545 40.5377 59.1854 41.8768 64.1562C41.92 64.3253 41.975 64.5023 42.0261 64.6753C42.8861 64.5259 43.75 64.3528 44.61 64.1248C58.9865 60.2433 68.0106 46.4242 66.3024 32.0427C65.572 42.1259 59.7915 46.0663 54.5019 47.5332Z" fill="url(#paint3_linear)"/>
<path d="M19.5876 11.8134C19.5876 11.8134 13.171 15.8365 9.81738 23.9179C10.697 24.0713 19.6465 25.8764 22.9844 35.8415C23.8012 35.3224 26.3027 33.3404 27.9873 27.882C30.0215 21.2831 33.8817 16.4185 38.8885 14.2988C38.8885 14.2988 32.5465 5.24603 19.5876 11.8134Z" fill="url(#paint4_linear)"/>
<path d="M39.9214 59.3113C39.9214 55.9686 40.8481 51.5405 44.5552 47.3719L44.5984 47.309C43.9936 46.6601 41.8731 45.0635 36.4225 46.3101C29.6996 47.8439 22.2855 47.6669 17.9501 44.3832C17.9501 44.3832 13.2928 54.4113 25.4506 62.363C25.4506 62.363 32.1303 65.9101 40.7853 64.7894C40.6282 64.3528 39.9253 62.2489 39.9214 59.3113Z" fill="url(#paint5_linear)"/>
<path d="M60.7223 17.5157C59.7641 18.6759 55.2206 23.4461 47.6377 23.4539C46.4164 23.4539 45.1205 23.3281 43.75 23.045L43.6833 23.0292C43.4319 23.9495 43.2277 26.5489 46.9269 30.5483C51.6117 35.6096 55.1656 42.1337 54.498 47.5332C54.498 47.5332 65.4974 46.5579 66.2946 32.0348C66.3024 32.0388 66.0275 24.4607 60.7223 17.5157Z" fill="url(#paint6_linear)"/>
<path d="M92.1182 32.1528H90.9676V28.0314H86.4438V32.1528H85.2932V23.1943H86.4438V26.9814H90.9676V23.1943H92.1182V32.1528Z" fill="#3C3C3B"/>
<path d="M99.3007 32.2825C98.6802 32.2825 98.1186 32.1764 97.6199 31.964C97.1212 31.7516 96.6971 31.4449 96.3437 31.0477C95.9902 30.6505 95.7193 30.1668 95.5308 29.5966C95.3423 29.0264 95.248 28.3853 95.248 27.6775C95.248 26.9617 95.3462 26.3207 95.5426 25.7505C95.7389 25.1842 96.0138 24.7005 96.3672 24.3033C96.7206 23.9061 97.1448 23.6033 97.6396 23.387C98.1344 23.1747 98.6763 23.0685 99.2614 23.0685C99.925 23.0685 100.51 23.1825 101.017 23.4067C101.523 23.6308 101.951 23.9494 102.293 24.3544C102.639 24.7595 102.902 25.2471 103.078 25.8134C103.259 26.3797 103.345 27.0011 103.345 27.6775C103.345 28.4365 103.243 29.105 103.039 29.6792C102.835 30.2533 102.552 30.7331 102.195 31.1185C101.837 31.5039 101.409 31.791 100.919 31.9876C100.428 32.1842 99.8858 32.2825 99.3007 32.2825ZM99.4145 31.205C100.259 31.205 100.919 30.9101 101.402 30.3162C101.885 29.7224 102.124 28.8415 102.124 27.6735C102.124 27.0601 102.057 26.5292 101.928 26.0848C101.794 25.6404 101.606 25.2747 101.358 24.9837C101.111 24.6926 100.813 24.4803 100.459 24.3426C100.106 24.205 99.7051 24.1381 99.2653 24.1381C98.8726 24.1381 98.5074 24.2089 98.1658 24.3544C97.8241 24.4999 97.5296 24.7162 97.2822 25.0072C97.0348 25.2983 96.8385 25.664 96.6932 26.1084C96.5479 26.5528 96.4772 27.0719 96.4772 27.6696C96.4772 28.2595 96.5479 28.7747 96.6892 29.219C96.8306 29.6634 97.027 30.0331 97.2822 30.328C97.5375 30.623 97.8477 30.8432 98.209 30.9887C98.5702 31.1342 98.9708 31.205 99.4145 31.205Z" fill="#3C3C3B"/>
<path d="M106.483 32.1528V23.1943H109.204C109.723 23.1943 110.166 23.2494 110.532 23.3556C110.897 23.4618 111.195 23.6151 111.427 23.8157C111.659 24.0162 111.824 24.2561 111.926 24.5314C112.028 24.8106 112.079 25.1134 112.079 25.4477C112.079 25.9786 111.933 26.4191 111.643 26.773C111.352 27.1269 110.928 27.3629 110.367 27.4848V27.5084C111.007 27.6028 111.49 27.8387 111.816 28.2202C112.142 28.6016 112.307 29.0617 112.307 29.6084C112.307 29.9426 112.248 30.2612 112.126 30.5679C112.008 30.8747 111.82 31.146 111.564 31.382C111.309 31.6179 110.979 31.8028 110.579 31.9443C110.178 32.0859 109.691 32.1567 109.122 32.1567H106.483V32.1528ZM107.634 27.0601H108.859C109.244 27.0601 109.566 27.0207 109.829 26.946C110.092 26.8674 110.304 26.7612 110.469 26.6275C110.63 26.4898 110.748 26.3286 110.818 26.1359C110.889 25.9432 110.928 25.7387 110.928 25.5146C110.928 25.1134 110.787 24.8067 110.508 24.5943C110.225 24.382 109.742 24.2758 109.051 24.2758H107.634V27.0601ZM107.634 31.0792H109.204C110.457 31.0792 111.081 30.5915 111.081 29.6202C111.081 29.0578 110.905 28.6528 110.551 28.405C110.198 28.1573 109.664 28.0353 108.949 28.0353H107.634V31.0792Z" fill="#3C3C3B"/>
<path d="M120.219 29.7617H116.398L115.531 32.1567H114.368L117.781 23.1982H118.931L122.281 32.1567H121.079L120.219 29.7617ZM116.768 28.7117H119.846L118.35 24.4999H118.299L116.768 28.7117Z" fill="#3C3C3B"/>
<path d="M124.771 32.1528V23.1943H127.492C128.01 23.1943 128.454 23.2494 128.819 23.3556C129.185 23.4618 129.483 23.6151 129.715 23.8157C129.946 24.0162 130.111 24.2561 130.213 24.5314C130.316 24.8106 130.367 25.1134 130.367 25.4477C130.367 25.9786 130.221 26.4191 129.931 26.773C129.64 27.1269 129.216 27.3629 128.654 27.4848V27.5084C129.295 27.6028 129.778 27.8387 130.104 28.2202C130.429 28.6016 130.594 29.0617 130.594 29.6084C130.594 29.9426 130.535 30.2612 130.414 30.5679C130.296 30.8747 130.107 31.146 129.852 31.382C129.597 31.6179 129.267 31.8028 128.867 31.9443C128.466 32.0859 127.979 32.1567 127.41 32.1567H124.771V32.1528ZM125.917 27.0601H127.143C127.527 27.0601 127.849 27.0207 128.113 26.946C128.376 26.8674 128.588 26.7612 128.753 26.6275C128.914 26.4898 129.031 26.3286 129.102 26.1359C129.173 25.9432 129.212 25.7387 129.212 25.5146C129.212 25.1134 129.071 24.8067 128.792 24.5943C128.509 24.382 128.026 24.2758 127.335 24.2758H125.917V27.0601ZM125.917 31.0792H127.488C128.741 31.0792 129.365 30.5915 129.365 29.6202C129.365 29.0578 129.189 28.6528 128.835 28.405C128.482 28.1573 127.948 28.0353 127.233 28.0353H125.917V31.0792Z" fill="#3C3C3B"/>
<path d="M140.475 32.1528H139.324V24.9365L134.981 32.1528H133.677V23.1943H134.828V30.4106L139.171 23.1943H140.475V32.1528Z" fill="#3C3C3B"/>
<path d="M150.814 32.1528H149.664V28.0314H145.14V32.1528H143.989V23.1943H145.14V26.9814H149.664V23.1943H150.814V32.1528Z" fill="#3C3C3B"/>
<path d="M161.727 34.1505H160.577V32.1528H154.584V34.1505H153.434V31.0792H154.317C154.58 30.6191 154.792 30.1196 154.949 29.5887C155.106 29.0539 155.232 28.4876 155.319 27.8859C155.409 27.2842 155.472 26.6589 155.511 26.0101C155.55 25.3612 155.578 24.6927 155.593 24.0005L155.617 23.1943H160.702V31.0792H161.723V34.1505H161.727ZM159.556 31.0792V24.2719H156.681C156.681 24.2955 156.677 24.3427 156.673 24.4056C156.669 24.4685 156.665 24.5353 156.665 24.6022C156.665 24.6691 156.662 24.7359 156.658 24.7949C156.654 24.8539 156.65 24.8971 156.65 24.9247C156.622 25.4792 156.587 26.0376 156.54 26.6C156.493 27.1623 156.426 27.7129 156.336 28.2438C156.245 28.7786 156.131 29.2859 155.998 29.7657C155.86 30.2494 155.692 30.6859 155.487 31.0792H159.556Z" fill="#3C3C3B"/>
<defs>
<radialGradient id="paint0_radial" cx="0" cy="0" r="1" gradientUnits="userSpaceOnUse" gradientTransform="translate(35.3069 32.0568) rotate(0.0551712) scale(8.68933 8.72692)">
<stop stop-color="#4A96D2"/>
<stop offset="1" stop-color="#1F2466"/>
</radialGradient>
<linearGradient id="paint1_linear" x1="28.7997" y1="7.9168" x2="54.8042" y2="18.3734" gradientUnits="userSpaceOnUse">
<stop stop-color="#4A96D2"/>
<stop offset="1" stop-color="#1F2466"/>
</linearGradient>
<linearGradient id="paint2_linear" x1="17.4751" y1="56.3208" x2="13.5317" y2="28.5379" gradientUnits="userSpaceOnUse">
<stop stop-color="#4A96D2"/>
<stop offset="1" stop-color="#1F2466"/>
</linearGradient>
<linearGradient id="paint3_linear" x1="65.0661" y1="41.9741" x2="42.9803" y2="59.2452" gradientUnits="userSpaceOnUse">
<stop stop-color="#4A96D2"/>
<stop offset="1" stop-color="#1F2466"/>
</linearGradient>
<linearGradient id="paint4_linear" x1="18.4014" y1="27.8435" x2="30.1093" y2="9.90363" gradientUnits="userSpaceOnUse">
<stop stop-color="#4A96D2"/>
<stop offset="1" stop-color="#1F2466"/>
</linearGradient>
<linearGradient id="paint5_linear" x1="40.507" y1="53.4505" x2="19.5459" y2="55.5842" gradientUnits="userSpaceOnUse">
<stop stop-color="#4A96D2"/>
<stop offset="1" stop-color="#1F2466"/>
</linearGradient>
<linearGradient id="paint6_linear" x1="54.0021" y1="23.0875" x2="58.2874" y2="44.6871" gradientUnits="userSpaceOnUse">
<stop stop-color="#4A96D2"/>
<stop offset="1" stop-color="#1F2466"/>
</linearGradient>
</defs>
</svg>
