<svg width="522" height="110" viewBox="0 0 522 110" fill="none" xmlns="http://www.w3.org/2000/svg">
<g clip-path="url(#clip0)">
<path d="M0 0H52.2887C51.3126 0.250237 50.3469 0.138152 49.329 0.26327C39.8939 1.23815 30.7432 4.70498 23.0463 10.2389C12.7499 17.5661 5.12082 28.4827 1.85571 40.687C0.96309 44.0521 0.31581 47.519 0.14877 50.9988H0V0Z" fill="white"/>
<path d="M52.2887 0H59.0095L59.1452 0.143365C73.709 1.04005 87.6334 8.23175 97.0476 19.3282C102.422 25.5946 106.339 33.086 108.43 41.0675C110.888 50.4853 110.805 60.5886 108.158 69.9569C104.46 83.2064 95.573 94.8085 83.8306 101.969C77.2691 105.999 69.888 108.566 62.2563 109.593C61.1184 109.784 59.9856 109.69 58.8868 110H52.0982L52.1008 109.854C50.2947 109.88 48.5042 109.682 46.7242 109.403C38.2757 108.115 30.1559 104.831 23.1977 99.8732C11.7293 91.7666 3.54177 79.2599 0.97353 65.437C0.55332 63.3595 0.21141 61.295 0.16965 59.168C0.16443 58.6884 0.11484 58.24 0 57.7735V50.9988H0.14877C0.31581 47.519 0.96309 44.0521 1.85571 40.687C5.12082 28.4827 12.7499 17.5661 23.0463 10.2389C30.7432 4.70498 39.8939 1.23815 49.329 0.26327C50.3469 0.138152 51.3126 0.250237 52.2887 0Z" fill="#0056B3"/>
<path d="M59.0094 0H522V78.8012C521.707 78.1782 521.444 77.55 521.212 76.9036C518.455 69.7536 515.694 62.6036 512.93 55.4562C512.721 54.8905 512.421 54.3014 512.345 53.6993C512.458 53.1024 512.727 52.5211 512.941 51.9502C515.449 45.2486 517.949 38.5261 520.463 31.827C520.58 31.4986 520.648 31.1597 520.718 30.8182C516.746 30.8078 512.768 30.7583 508.798 30.8443C506.789 36.6284 504.607 42.3578 502.579 48.1367C501.778 48.1941 500.979 48.1915 500.18 48.1446C500.123 46.3408 500.339 44.5526 500.295 42.7488C500.274 38.7763 500.332 34.8012 500.266 30.8313C496.589 30.7922 492.898 30.7635 489.223 30.8443C489.216 46.8725 489.252 62.919 489.205 78.9472C490.523 79.2417 491.943 79.0332 493.29 79.0931C495.615 79.0384 497.975 79.2078 500.29 79.0019C500.295 74.0519 500.295 69.0732 500.292 64.1206C500.185 62.6609 500.18 61.2194 500.175 59.7545C500.976 59.6946 501.835 59.619 502.634 59.7441C502.887 59.9318 502.944 60.3462 503.062 60.6277C505.009 66.636 506.998 72.7043 508.965 78.7074C509.091 79.127 509.354 79.127 509.733 79.1348C512.954 79.127 516.166 79.1296 519.39 79.1296C520.264 79.1244 521.128 79.0931 522 79.2V110H58.8867C59.9855 109.69 61.1183 109.784 62.2562 109.593C69.8879 108.566 77.2689 105.999 83.8305 101.969C95.5729 94.8085 104.46 83.2064 108.158 69.9569C110.805 60.5886 110.888 50.4853 108.43 41.0675C106.339 33.086 102.422 25.5946 97.0475 19.3282C87.6333 8.23175 73.7089 1.04005 59.1451 0.143365L59.0094 0Z" fill="white"/>
<path d="M80.0642 8.13777C86.1194 11.3518 91.4829 15.7648 95.8886 21.0015C101.336 27.4816 105.167 35.2624 107.025 43.515C108.427 49.9691 108.696 56.6447 107.647 63.1717C105.859 74.7816 100.065 85.6904 91.4516 93.6771C87.782 97.1674 83.5537 100.11 79.0332 102.394C68.6768 107.654 56.5611 109.382 45.1528 107.148C35.0417 105.243 25.5543 100.303 18.1733 93.1454C9.75861 85.0857 4.11841 74.216 2.47672 62.6764C0.519216 49.87 3.5938 36.4146 10.8157 25.6622C15.2501 18.997 21.2035 13.3693 28.0965 9.2873C34.2482 5.65365 41.1804 3.23209 48.277 2.34844C59.1163 0.865262 70.4333 2.97403 80.0642 8.13777Z" fill="white"/>
<path d="M65.2004 15.2017C70.0994 16.273 75.0114 18.2983 78.7672 21.687C79.7355 22.5524 80.3958 23.6159 80.8395 24.828C81.0118 25.404 81.4868 25.5318 81.9566 25.8107C83.687 26.7021 85.3209 27.7709 86.7799 29.0637C88.2519 30.427 89.5778 32.0379 89.5961 34.1467C89.6665 34.6393 89.4395 35.3979 89.69 35.8123C90.5853 36.4874 91.517 37.0635 92.2504 37.9341C93.8269 39.5919 94.5446 42.0474 94.1844 44.2969C94.0513 45.0946 93.6155 45.655 93.2814 46.3614C94.0174 47.1199 94.8317 47.709 95.3302 48.6761C96.4108 50.4955 96.0897 52.6095 95.2154 54.4341C93.8843 57.0382 91.7806 59.0114 89.3011 60.518C84.6136 63.3957 79.3779 65.4237 74.0091 66.6123C65.5527 68.6064 57.0337 69.8315 48.4781 71.2782C48.6556 71.4659 48.8566 71.591 49.081 71.651C53.5233 72.7092 58.0725 73.2358 62.64 73.2697C67.5024 73.3896 72.3205 72.777 77.0628 71.7344C83.1546 70.3633 89.1263 68.2988 94.7169 65.5123C94.5707 66.1405 94.4167 66.8365 94.0931 67.3969C93.8086 67.7149 93.3675 67.9078 93.0021 68.1216C86.2761 71.7969 78.6445 73.877 71.1303 75.1934C66.6254 75.9206 62.2015 76.4081 57.6314 75.9832C52.2522 75.6156 46.9434 74.7581 41.7704 73.2254C41.2667 73.095 40.7447 72.8813 40.2227 73.0273C38.6202 73.4652 37.0359 74.0021 35.496 74.6329C36.2033 75.1204 36.9524 75.3419 37.7406 75.6886C42.6996 77.7583 47.9196 79.0981 53.257 79.7002C57.7436 80.3076 62.2537 80.5292 66.769 80.1616C73.9778 79.5464 81.1214 78.1102 88.0144 75.918C88.9409 75.6339 89.8101 75.2481 90.7679 75.0682C90.3347 75.7746 89.9066 76.6609 89.1132 77.0102C87.696 77.727 86.1796 78.3057 84.684 78.8453C79.5162 80.6647 74.1997 81.9315 68.7813 82.7422C66.7325 83.0185 64.6758 82.9403 62.6269 83.0732C61.4837 83.1957 60.3876 82.9924 59.247 83.0002C55.3346 82.9455 51.4144 82.6327 47.5516 82.0045C42.402 81.1104 37.4822 79.4318 32.7111 77.3334C32.4162 77.2396 31.9203 76.9398 31.6593 77.2109C31.1477 77.628 30.7353 78.35 30.5866 78.9886C30.4796 79.2858 31.0381 79.4526 31.2286 79.5934C39.9513 84.0559 49.4177 86.7981 59.2574 86.9232C66.8656 87.1448 74.5259 85.8571 81.8391 83.8161C82.9092 83.5581 83.9193 83.1149 84.9999 82.9507C84.2534 83.6701 83.4547 84.6111 82.4629 84.9682C75.7448 87.5957 68.5516 89.4491 61.3245 89.7749C59.3409 89.9339 57.3104 89.9443 55.3294 89.7905C47.3898 89.4621 39.4449 87.1813 32.3196 83.7118C32.0195 83.5711 31.701 83.5059 31.3774 83.4355C33.006 85.1716 35.0914 86.5713 37.1298 87.7808C42.9841 91.2268 49.5352 93.3616 56.376 93.3199C61.6273 93.419 66.9204 92.7829 71.9994 91.4562C72.8999 91.2163 73.7194 90.8592 74.6486 90.7315C74.3041 91.013 73.9204 91.2242 73.5237 91.4197C66.5445 95.1654 58.4614 96.3879 50.6288 95.5043C43.0023 94.7066 35.5847 91.8393 29.767 86.7825C28.5821 85.8389 27.5511 84.7701 26.9195 83.373C26.5254 82.5858 26.3975 81.6917 26.0112 80.9071C24.1503 79.7967 22.3912 78.7436 20.987 77.0415C20.2745 76.1474 19.4079 75.0917 19.1443 73.9578C18.9303 72.6363 19.0112 71.2991 19.4549 70.0322C19.5985 69.7194 19.2044 69.5474 19.0191 69.3728C17.6305 68.351 16.0776 67.2119 15.6052 65.4628C15.1171 63.9119 15.5086 62.4365 16.2264 61.0367C16.6074 60.5284 15.9001 60.101 15.6652 59.6891C13.9504 57.6924 13.9269 54.5801 15.044 52.2993C16.2185 49.7995 18.3979 47.7246 20.6373 46.1633C24.9464 43.2386 30.3517 41.4948 35.2924 39.9464C39.2178 38.7109 43.2268 37.8794 47.2462 37.0244C54.4341 35.291 61.3637 34.9391 68.3585 32.8251C68.6743 32.7339 68.9562 32.5827 69.2276 32.4055C64.5635 31.5896 59.8055 31.2142 55.071 31.2325C41.6947 31.2742 28.2689 34.9287 17.0903 42.355C16.811 42.5374 16.5056 42.6704 16.195 42.7929C16.4038 41.9066 16.6935 41.0334 17.012 40.181C17.119 39.8239 17.5261 39.618 17.8132 39.4173C21.0027 37.405 24.3017 35.5074 27.7495 33.9694C34.4598 30.891 41.7052 29.0559 49.0602 28.4668C52.307 28.2739 55.4625 28.0393 58.7145 28.2974C62.9715 28.4199 67.2205 28.8917 71.42 29.5746C72.036 29.6581 72.7172 29.8614 73.3305 29.7571C74.4137 29.2332 75.3428 28.2505 75.6952 27.0905C75.8753 26.5796 75.5621 26.4832 75.1601 26.3294C68.489 24.0538 61.5568 23.4725 54.549 23.4569C50.4356 23.3943 46.5154 24.0303 42.4803 24.6924C37.6127 25.6256 32.7477 26.8611 28.0914 28.5789C26.4262 29.2045 24.7663 29.8927 23.1977 30.7294C22.7801 30.9536 22.3599 31.1386 21.9083 31.282C22.4173 30.2993 23.242 29.4495 23.9441 28.5998C25.1473 27.6666 26.7107 27.1166 28.094 26.4936C34.3163 24.0121 40.8674 22.31 47.4863 21.3038C50.8637 20.7799 54.2645 20.5609 57.681 20.5896C62.1754 20.5374 66.6542 21.0353 71.0233 22.0988C72.5893 22.4168 74.124 22.9512 75.7056 23.1806C75.181 22.2057 74.0613 21.5723 73.1113 21.077C71.7593 20.4071 70.3969 19.7424 68.9849 19.2107C65.6597 17.9908 62.1963 17.36 58.6754 17.068C50.5087 16.4346 42.1384 17.5007 34.4389 20.3211C33.5568 20.6365 32.7346 21.0536 31.8446 21.3325C32.364 20.7746 32.9982 20.4358 33.6403 20.0396C38.0355 17.4382 42.9815 15.869 48.0057 15.0479C53.7294 14.1825 59.5132 13.9557 65.2004 15.2017Z" fill="#0056B3"/>
<path d="M80.6308 28.7175C81.4346 29.158 82.1498 29.7914 82.8179 30.417C83.5226 31.1416 84.2247 31.8454 84.3578 32.8959C83.8045 32.8724 83.3138 32.7265 82.8049 32.5231C81.4868 32.007 80.1349 31.6186 78.7803 31.2094C79.117 30.5317 79.6468 30.013 80.0331 29.3665C80.2001 29.1866 80.3489 28.681 80.6308 28.7175Z" fill="white"/>
<path d="M211.94 30.0233C215.21 30.2579 218.334 31.3944 220.621 33.8107C223.687 37.069 224.577 41.7766 223.578 46.0619C222.912 48.8718 221.195 51.382 218.778 52.9747C218.246 53.3318 217.596 53.5586 217.113 53.9782C217.069 54.4813 218.209 54.656 218.561 54.901C220.986 56.074 222.972 58.2479 223.894 60.7815C224.906 63.555 224.912 66.4536 224.413 69.3313C223.834 72.3107 222.273 75.1076 219.864 76.9896C217.136 79.1688 213.566 80.1306 210.105 80.0446C206.501 80.0915 202.865 79.432 199.722 77.61C199.561 77.1486 199.629 76.5986 199.613 76.1138C199.66 73.2465 199.686 70.3818 199.73 67.5145C201.448 68.0515 203.058 68.7057 204.882 68.8387C206.576 68.9455 208.536 69.1645 210.042 68.2339C212.256 66.9879 212.932 63.8052 211.447 61.7486C210.541 60.5209 208.964 60.0282 207.498 59.9422C205.752 59.8692 204 59.9292 202.254 59.9057C202.077 58.6415 202.194 57.3278 202.163 56.0427C202.202 53.8792 202.077 51.7 202.231 49.5444C203.724 49.5026 205.219 49.5391 206.712 49.5287C208.395 49.5235 210.162 48.8562 211.206 47.4955C212.172 46.2652 212.237 44.3858 211.726 42.9626C211.123 41.4977 209.745 40.7339 208.239 40.4785C205.676 40.1552 203.371 40.8095 201.007 41.7114C200.92 38.4948 200.967 35.273 200.887 32.0564C200.897 31.6498 200.787 31.2301 201.304 31.1154C204.76 30.2526 208.377 29.8408 211.94 30.0233Z" fill="#0056B3"/>
<path d="M319.736 30.2971C323.254 30.7923 326.558 32.4606 328.907 35.1454C332.269 38.9381 333.757 44.0158 334.433 48.9397C334.775 52.0051 334.968 55.0627 334.678 58.1411C334.37 62.7653 333.357 67.7023 331.011 71.7478C329.166 74.9253 326.391 77.5241 322.881 78.7414C318.744 80.1542 314.012 80.0343 310.003 78.2618C306.743 76.7916 304.282 74.1511 302.653 71.0075C300.612 67.1705 299.806 62.9426 299.414 58.6573C299.078 52.2189 299.399 45.9421 302.071 39.9729C303.598 36.6234 305.887 33.7144 309.181 31.9601C312.472 30.1798 316.071 29.9217 319.736 30.2971Z" fill="#0056B3"/>
<path d="M141.293 30.8495C142.125 30.7661 142.976 30.8025 143.811 30.7999C150.605 30.8052 157.399 30.7973 164.19 30.8052C164.255 31.3082 164.297 31.8139 164.292 32.3222C164.271 34.8428 164.289 37.3608 164.282 39.8815C164.274 40.9189 164.344 41.9329 164.19 42.9625C160.377 43.0068 156.545 42.8869 152.735 43.0251C152.719 53.9677 152.735 64.9104 152.727 75.853C152.73 76.9113 152.748 77.9696 152.693 79.0279C150.438 79.1765 148.16 79.054 145.899 79.0931C144.354 79.0513 142.783 79.1947 141.248 79.0018C141.24 63.7895 141.246 48.5772 141.243 33.3649C141.246 32.5307 141.209 31.681 141.293 30.8495Z" fill="#0056B3"/>
<path d="M172.589 30.8444C173.079 30.7845 173.591 30.7949 174.087 30.7949C178.166 30.8236 182.264 30.7714 186.341 30.8183C186.709 30.7506 186.771 31.3006 186.855 31.5482C187.484 34.5093 187.912 37.5044 188.606 40.4551C190.488 50.084 192.461 59.7155 194.366 69.3444C194.907 72.5819 195.677 75.7776 196.254 79.0072C194.275 79.2001 192.258 79.0437 190.269 79.0932C188.468 79.0437 186.638 79.2027 184.848 79.002C184.422 76.2885 184.023 73.5646 183.488 70.8693C182.285 70.7103 181.058 70.8146 179.829 70.7885C178.464 70.8276 177.065 70.6868 175.718 70.8902C175.321 73.4368 174.878 75.9861 174.429 78.5276C174.361 79.3331 173.607 79.0333 173.043 79.1037C169.723 79.0411 166.385 79.1819 163.067 79.0307C163.088 78.5068 163.13 77.9854 163.234 77.4693C164.644 70.4627 166.045 63.5238 167.442 56.512C168.963 48.507 170.579 40.5646 172.184 32.5752C172.294 31.9992 172.377 31.3918 172.589 30.8444Z" fill="#0056B3"/>
<path d="M230.001 30.8314C230.674 30.7767 231.355 30.8002 232.029 30.8002C241.506 30.808 250.983 30.7923 260.462 30.808C260.533 31.6604 260.535 32.5127 260.522 33.3651C260.52 47.5269 260.522 61.6914 260.52 75.8532C260.509 76.961 260.585 78.0454 260.428 79.1454C256.725 79.1167 253.018 79.1219 249.315 79.1428C249.286 78.7414 249.263 78.3426 249.255 77.9385C249.255 67.426 249.255 56.9108 249.255 46.3983C249.247 45.1106 249.286 43.8281 249.216 42.5404C246.546 42.5248 243.873 42.5274 241.203 42.5404C241.153 43.4788 241.156 44.4172 241.164 45.3556C241.164 55.6961 241.164 66.034 241.164 76.3746C241.174 77.2999 241.18 78.2227 241.101 79.1428C237.403 79.1193 233.702 79.1193 230.001 79.1428C229.925 78.2227 229.93 77.2999 229.941 76.3746C229.941 62.0381 229.941 47.7016 229.941 33.3651C229.946 32.5258 229.894 31.663 230.001 30.8314Z" fill="#0056B3"/>
<path d="M266.862 30.8548C267.682 30.7636 268.527 30.8027 269.352 30.8001C273.442 30.8027 277.529 30.8027 281.619 30.8001C283.339 30.8392 285.122 31.0269 286.737 31.642C289.564 32.6299 291.882 34.6527 293.495 37.142C295.463 40.283 296.512 43.9897 296.332 47.7015C296.178 51.7679 294.74 56.0349 291.976 59.0821C289.731 61.5036 286.482 62.9816 283.185 63.1432C281.546 63.2318 279.899 63.198 278.26 63.1719C278.176 63.5733 278.101 63.9721 278.106 64.384C278.124 69.0733 278.106 73.7679 278.116 78.4598C278.129 78.7961 278.08 79.1245 277.67 79.1219C274.217 79.1349 270.751 79.1349 267.298 79.1219C266.888 79.1245 266.839 78.7961 266.852 78.4598C266.862 62.5932 266.844 46.724 266.862 30.8548Z" fill="#0056B3"/>
<path d="M340.143 30.8314C342.99 30.7558 345.851 30.8314 348.701 30.7949C349.153 30.847 349.625 30.6776 349.891 31.1338C352.405 34.525 354.923 37.9267 357.419 41.3309C357.609 41.5603 357.8 41.8966 358.089 42.0008C358.269 41.8262 358.439 41.6359 358.596 41.4326C360.859 38.3933 363.129 35.3565 365.397 32.3224C365.765 31.8324 366.102 31.2928 366.535 30.8575C367.102 30.7662 367.697 30.8001 368.271 30.7975C370.857 30.8236 373.444 30.7636 376.03 30.8314C376.059 31.762 376.067 32.6925 376.056 33.6257C376.056 48.752 376.062 63.8783 376.054 79.002C373.653 79.208 371.207 79.0385 368.793 79.0933C367.446 79.0333 366.026 79.2418 364.708 78.9473C364.76 69.9257 364.706 60.8963 364.737 51.8722C364.747 51.257 364.724 50.6444 364.64 50.0319C364.452 50.2039 364.272 50.3838 364.1 50.5715C362.075 53.0738 360.107 55.6283 358.034 58.0942C356.007 55.6283 354.036 53.1077 352.029 50.6236C351.831 50.3968 351.606 50.2039 351.376 50.011C351.311 58.6207 351.369 67.2435 351.348 75.8532C351.337 76.961 351.413 78.0454 351.256 79.1454C347.553 79.1167 343.847 79.1219 340.143 79.1428C340.033 77.8707 340.096 76.6065 340.083 75.3319C340.083 61.3421 340.083 47.3549 340.083 33.3651C340.088 32.5257 340.036 31.6629 340.143 30.8314Z" fill="#0056B3"/>
<path d="M383.529 30.8549C384.262 30.7715 385.019 30.8002 385.758 30.8002C393.583 30.808 401.408 30.7923 409.232 30.808C409.355 32.3485 409.266 33.9047 409.292 35.4504C409.266 37.7886 409.342 40.1319 409.251 42.4675C404.365 42.53 399.474 42.4518 394.588 42.5066C394.473 44.5397 394.478 46.7189 394.585 48.7521C397.281 48.7938 399.802 48.7729 402.428 49.5627C404.683 50.1987 406.771 51.2727 408.415 52.9644C410.141 54.7004 411.195 57.0464 411.631 59.4314C412.075 61.7826 412.049 64.2459 411.733 66.6127C411.219 70.1447 409.624 73.4968 406.784 75.7438C403.827 78.0793 400.199 79.0698 396.467 79.1298C392.304 79.122 388.123 79.1428 383.965 79.122C383.555 79.1246 383.506 78.7961 383.519 78.4599C383.529 62.6376 383.511 46.6615 383.529 30.8549Z" fill="#0056B3"/>
<path d="M452.172 30.8548C453.428 30.7375 454.706 30.8287 455.967 30.8027C458.368 30.8209 460.775 30.761 463.173 30.8339C463.145 35.9351 463.176 41.0363 463.16 46.1375C463.145 46.8283 463.158 47.5164 463.231 48.2046C465.768 48.2306 468.31 48.2411 470.847 48.202C470.959 42.4152 470.823 36.6181 470.917 30.8287C474.592 30.787 478.29 30.7766 481.965 30.8339C481.952 46.8674 481.937 62.9138 481.976 78.9472C481.574 79.0306 481.174 79.1062 480.762 79.101C478.499 79.0854 476.239 79.0984 473.976 79.0932C472.937 79.0854 471.922 79.1531 470.891 79.002C470.883 73.5228 470.891 68.0411 470.886 62.5593C470.896 61.6183 470.909 60.6799 470.828 59.7415C468.302 59.7285 465.778 59.7363 463.254 59.7363C463.21 60.0674 463.181 60.3984 463.163 60.7321C463.155 66.7012 463.176 72.72 463.155 78.6866C463.158 79.0958 462.829 79.1453 462.492 79.1323C459.201 79.1219 455.899 79.1427 452.608 79.1219C452.198 79.1245 452.149 78.796 452.162 78.4598C452.172 62.6088 452.154 46.6979 452.172 30.8548Z" fill="#0056B3"/>
<path d="M489.224 30.8441C492.899 30.7633 496.589 30.792 500.267 30.8311C500.332 34.801 500.275 38.7761 500.295 42.7487C500.34 44.5524 500.123 46.3406 500.181 48.1444C500.979 48.1913 501.778 48.1939 502.579 48.1366C504.607 42.3577 506.789 36.6283 508.799 30.8441C512.769 30.7581 516.746 30.8077 520.719 30.8181C520.648 31.1596 520.58 31.4984 520.463 31.8269C517.949 38.5259 515.449 45.2484 512.941 51.9501C512.727 52.5209 512.458 53.1022 512.346 53.6991C512.422 54.3013 512.722 54.8904 512.93 55.456C515.694 62.6034 518.456 69.7534 521.212 76.9034C521.444 77.5498 521.708 78.178 522 78.801V79.1998C521.128 79.093 520.265 79.1243 519.39 79.1295C516.167 79.1295 512.954 79.1269 509.733 79.1347C509.355 79.1269 509.091 79.1269 508.966 78.7072C506.998 72.7041 505.009 66.6359 503.062 60.6276C502.945 60.3461 502.887 59.9316 502.634 59.7439C501.835 59.6188 500.977 59.6944 500.175 59.7543C500.181 61.2193 500.186 62.6607 500.293 64.1205C500.295 69.0731 500.295 74.0517 500.29 79.0017C497.975 79.2077 495.616 79.0382 493.29 79.093C491.943 79.033 490.524 79.2416 489.206 78.947C489.253 62.9188 489.216 46.8724 489.224 30.8441Z" fill="#0056B3"/>
<path d="M423.684 31.0553C424.01 30.8311 424.527 30.9301 424.908 30.8989C428.215 30.9171 431.519 30.9015 434.826 30.9067C435.86 30.9171 436.87 30.8467 437.901 30.9927C438.078 32.2517 438.378 33.4768 438.631 34.7202C439.537 39.2192 440.422 43.7209 441.33 48.22C443.079 57.5882 445.055 66.9617 446.897 76.3091C447.103 77.2683 447.341 78.2041 447.351 79.192C443.559 79.1868 439.762 79.2363 435.969 79.1659C435.523 76.4133 435.142 73.6373 434.568 70.9107C433.265 70.8065 431.963 70.8742 430.65 70.856C429.35 70.8794 428.108 70.7882 426.821 70.9368C426.484 73.3636 426.041 75.7773 425.678 78.2041C425.615 78.5117 425.597 78.9209 425.37 79.1581C424.094 79.2598 422.797 79.1685 421.515 79.1972C419.017 79.1738 416.517 79.252 414.022 79.1529C414.544 76.8982 414.935 74.6252 415.395 72.3574C418.195 58.6126 420.886 44.7896 423.684 31.0553Z" fill="#0056B3"/>
<path d="M75.7268 33.8994C77.9923 34.3191 80.2395 35.2418 82.398 36.0447C82.672 36.1906 83.3584 36.3105 83.2619 36.7328C82.7921 37.3741 82.0874 37.8589 81.4818 38.3724C81.0329 38.693 80.5266 39.1831 79.9263 38.9902C76.9953 38.1587 74.0538 37.0587 71.0288 36.6155C71.8536 36.0525 72.7958 35.7553 73.6466 35.2366C74.3748 34.8456 75.0012 34.2904 75.7268 33.8994Z" fill="white"/>
<path d="M88.2103 39.3342C89.3013 40.1293 90.2461 41.2814 89.7502 42.7176C89.6379 43.2494 89.2386 42.9705 88.9254 42.8219C87.9545 42.2693 86.9418 41.8131 85.9265 41.3518C86.7069 40.7184 87.3933 39.8947 88.2103 39.3342Z" fill="white"/>
<path d="M64.9888 39.6157C67.3561 39.5584 69.8095 40.0354 72.1089 40.5749C72.9911 40.8043 73.8263 40.9242 74.6511 41.3335C62.1465 44.6387 49.2479 46.0124 36.7591 49.2107C31.5208 50.5766 25.8153 52.2814 21.3862 55.4953C20.6475 55.9723 20.0786 56.6892 19.3217 57.1167C18.4656 56.2148 18.2881 54.6273 18.8727 53.5273C19.6088 51.9503 21.1356 50.819 22.5711 49.9119C26.0502 47.7771 30.161 46.4086 34.0499 45.2174C42.2531 42.7906 50.7017 41.1536 59.1816 40.0432C61.1208 39.819 63.0287 39.5584 64.9888 39.6157Z" fill="white"/>
<path d="M278.26 41.5239C279.205 41.4561 280.16 41.4718 281.107 41.5031C282.345 41.55 283.553 42.272 284.122 43.3824C284.921 44.8734 284.827 46.586 284.772 48.2282C284.688 49.5836 284.164 51.1398 282.992 51.9374C282.034 52.6099 280.904 52.49 279.792 52.5187C279.283 52.5031 278.712 52.563 278.223 52.3962C278.009 51.6611 278.143 50.8087 278.114 50.0476C278.111 47.6156 278.122 45.181 278.106 42.749C278.132 42.3606 278.056 41.8654 278.26 41.5239Z" fill="white"/>
<path d="M318.324 42.0736C319.913 42.5636 321.017 44.0833 321.596 45.5717C322.881 48.8222 322.951 52.5992 322.899 56.0426C322.93 57.7994 322.719 59.5355 322.424 61.2637C322.09 63.2134 321.372 65.4968 319.853 66.8549C318.136 68.4084 315.252 68.2025 313.774 66.4144C312.088 64.4594 311.53 61.4227 311.295 58.9255C311.047 56.6734 311.076 54.3847 311.18 52.1274C311.368 49.9091 311.652 47.5215 312.514 45.4544C313.033 44.2475 313.772 43.0641 314.964 42.4281C315.951 41.8468 317.235 41.7947 318.324 42.0736Z" fill="white"/>
<path d="M82.5544 43.9766C83.862 44.5318 85.1644 45.1522 86.3729 45.9029C86.7748 46.1557 86.5791 46.3356 86.2841 46.5493C83.802 48.3714 80.8214 49.2654 77.9217 50.1882C71.8299 52.0102 65.5503 53.337 59.3124 54.5465C52.4429 55.7195 45.388 56.6709 38.6307 58.3782C34.4861 59.3192 30.4954 60.5026 26.8309 62.7131C25.5181 62.2569 24.2001 61.3759 23.0229 60.6252C23.665 59.791 24.7403 59.2462 25.6251 58.6962C30.6781 55.8498 36.6785 54.2884 42.29 52.9851C48.2721 51.7418 54.2725 50.6053 60.2885 49.5496C67.0824 48.3844 73.8292 47.029 80.2759 44.4666C80.9989 44.2294 81.8106 43.5439 82.5544 43.9766Z" fill="white"/>
<path d="M179.696 45.9626L179.703 46.0304C180.288 50.6937 181.076 55.3361 181.656 59.9994C180.299 60.0906 178.881 60.1453 177.529 59.9603C178.041 56.569 178.492 53.1674 178.996 49.7735C179.192 48.4807 179.288 47.2164 179.696 45.9626Z" fill="white"/>
<path d="M430.804 46.1663C431.433 50.2092 431.955 54.2755 432.569 58.3236C432.665 58.9336 432.709 59.5461 432.728 60.1639C431.368 60.1639 430.013 60.2056 428.654 60.1274C429.296 55.79 429.979 51.4551 430.561 47.1073C430.614 46.7866 430.7 46.4738 430.804 46.1663Z" fill="white"/>
<path d="M90.2564 49.5469C90.7549 50.4722 91.0341 51.4393 90.6505 52.4715C89.938 54.4291 88.0013 55.7011 86.2813 56.7125C82.2358 58.9647 77.5692 60.3696 73.1113 61.5583C70.8928 62.1812 68.5412 62.5879 66.2887 63.0649C60.7216 64.144 55.1388 65.1893 49.5456 66.1225C46.2413 66.6542 43.0023 67.4701 39.7946 68.4215C39.223 68.6014 38.8759 68.5597 38.3278 68.3329C36.4434 67.5587 34.5276 66.7924 32.7189 65.8514C32.6171 65.6898 32.6824 65.5647 32.9225 65.4734C35.462 64.4673 38.1112 63.7035 40.7838 63.1353C47.3193 61.5713 54.0426 60.758 60.5572 59.5199C63.6996 58.9829 66.8525 58.2895 69.9584 57.6144C74.7295 56.3867 79.5893 55.2241 84.1098 53.2431C85.5558 52.5784 87.0278 51.859 88.3328 50.9414C89.0192 50.4644 89.5047 49.904 90.2564 49.5469Z" fill="white"/>
<path d="M0 57.7734C0.11484 58.24 0.16443 58.6884 0.16965 59.168C0.21141 61.295 0.55332 63.3595 0.97353 65.4369C3.54177 79.2599 11.7293 91.7666 23.1977 99.8732C30.1559 104.831 38.2757 108.115 46.7242 109.403C48.5042 109.682 50.2947 109.88 52.1008 109.854L52.0982 110H0V57.7734Z" fill="white"/>
<path d="M394.583 58.6025C395.624 58.5086 396.731 58.4669 397.762 58.6546C398.769 58.8866 399.701 59.4549 400.207 60.3776C401.016 61.7539 401.008 63.529 400.787 65.0617C400.505 66.756 399.516 68.2627 397.905 68.9456C396.812 69.4461 395.752 69.347 394.588 69.3184C394.442 67.77 394.554 66.2008 394.52 64.6447C394.554 62.6323 394.444 60.6096 394.583 58.6025Z" fill="white"/>
<path d="M20.1388 63.8545C21.1358 64.3315 22.0259 64.9936 23.0072 65.5045C22.6549 65.9998 22.2373 66.4246 21.6709 66.6749C20.6582 66.1118 19.917 65.0588 20.1388 63.8545Z" fill="white"/>
<path d="M27.9507 68.062C28.8851 68.3331 29.7464 68.8623 30.6572 69.2142C31.5681 69.6729 32.6565 69.9362 33.4526 70.5774C32.406 71.031 31.4011 71.5106 30.4041 72.0632C30.0517 72.3108 29.5323 71.8573 29.2035 71.7165C28.0603 71.0127 26.7579 70.481 25.7322 69.613C26.4186 69.0499 27.1364 68.4322 27.9507 68.062Z" fill="white"/>
<path d="M24.007 73.0693C24.6986 73.3535 25.3224 73.8018 25.9932 74.1354C26.3116 74.3283 26.7631 74.4899 26.9589 74.8158C26.7475 75.3397 26.4734 75.8402 26.2202 76.3459C25.539 76.0487 25.1162 75.5144 24.6673 74.9461C24.2575 74.3726 23.9 73.807 24.007 73.0693Z" fill="white"/>
</g>
<defs>
<clipPath id="clip0">
<rect width="522" height="110" fill="white"/>
</clipPath>
</defs>
</svg>
