<svg xmlns="http://www.w3.org/2000/svg" viewBox="0 0 335 111" width="335" height="111">
	<style>
		tspan { white-space:pre }
		.shp0 { fill: #035fa3 } 
		.shp1 { fill: #403f41 } 
	</style>
	<g id="g10">
		<g id="g12">
			<path id="path14" class="shp0" d="M68.43 61.35C65.09 65.06 59.39 65.34 55.69 61.99C52 58.63 51.72 52.91 55.06 49.21C58.4 45.51 64.1 45.22 67.8 48.58C71.49 51.93 71.78 57.65 68.43 61.35" />
			<path id="path16" class="shp0" d="M40.85 55.59C40.85 55.59 45.87 53.04 48.78 41.66C51.69 30.29 62.54 25 62.54 25C62.54 25 39.26 1.89 21.63 38.13C21.63 38.13 36 40.96 40.85 55.59Z" />
			<path id="path18" class="shp0" d="M42.97 16.09C42.97 16.09 60.91 12.56 71.53 35.05C71.53 35.05 83.92 39.06 94.81 27.55C94.81 27.55 76.6 2.64 42.97 16.09Z" />
			<path id="path20" class="shp0" d="M72.24 72.63C72.24 72.63 67.51 69.55 56.2 72.73C44.9 75.9 34.89 69.15 34.89 69.15C34.89 69.15 26.53 100.87 66.74 98.01C66.74 98.01 61.99 84.15 72.24 72.63Z" />
			<path id="path22" class="shp0" d="M36.97 90.56C36.97 90.56 24.94 76.79 39.09 56.34C39.09 56.34 36.37 43.6 20.96 39.93C20.96 39.93 8.5 68.16 36.97 90.56Z" />
			<path id="path24" class="shp0" d="M71.35 37.06C71.35 37.06 71.05 42.7 79.45 50.9C87.85 59.1 87.02 71.14 87.02 71.14C87.02 71.14 118.66 62.52 96.08 29.14C96.08 29.14 86.45 40.18 71.35 37.06Z" />
			<path id="path26" class="shp0" d="M104.51 58.64C104.51 58.64 98.6 75.94 73.82 73.91C73.82 73.91 64.15 82.64 68.68 97.82C68.68 97.82 99.35 94.5 104.51 58.64Z" />
			<path id="path28" class="shp0" d="M68.12 61.35C64.78 65.06 59.07 65.34 55.38 61.99C51.69 58.63 51.41 52.91 54.75 49.21C58.09 45.51 63.79 45.22 67.49 48.58C71.18 51.93 71.47 57.65 68.12 61.35" />
			<path id="path30" fill-rule="evenodd" class="shp1" d="M123.94 57.87L123.94 66.13L119.45 66.13L119.45 45.18L126.57 45.18C131.84 45.18 134.65 47.07 134.65 51.22C134.65 54.37 132.85 55.95 130.61 56.7C132.43 57.42 132.79 59 135.91 66.13L131.12 66.13C128.22 59.9 128.76 57.87 125.7 57.87M123.85 54.16L126.45 54.16C128.49 54.16 129.98 53.62 129.98 51.58C129.98 49.76 128.69 49.13 126.21 49.13L123.85 49.13L123.85 54.16Z" />
			<path id="path32" fill-rule="evenodd" class="shp1" d="M138.73 55.65C138.73 48.62 143.01 44.82 148.79 44.82C155.25 44.82 158.99 48.92 158.99 55.65C158.99 63.1 154.65 66.49 148.91 66.49C142.83 66.49 138.73 62.68 138.73 55.65ZM154.23 55.65C154.23 50.89 152.05 48.77 148.79 48.77C145.82 48.77 143.49 50.98 143.49 55.65C143.49 60.32 145.91 62.53 149.05 62.53C152.11 62.53 154.23 60.35 154.23 55.65Z" />
			<path id="path34" class="shp1" d="M163.19 61.16C164.15 61.79 166.24 62.63 168.37 62.63C170.7 62.63 171.78 61.76 171.78 60.2C171.78 58.43 170.82 58.02 168.34 57.18L167.62 56.94C164.33 55.83 162.83 53.89 162.83 50.95C162.83 47.15 165.97 44.82 170.16 44.82C172.92 44.82 174.89 45.39 176.09 45.9L175.04 49.73C173.57 49.07 171.9 48.74 170.58 48.74C168.55 48.74 167.44 49.4 167.44 50.77C167.44 52.18 168.19 52.66 171.3 53.74L172.08 54.01C175.76 55.26 176.69 57.39 176.69 59.93C176.69 64.18 173.36 66.49 168.91 66.49C166.33 66.49 163.7 65.8 162.26 65.02" />
			<path id="path36" fill-rule="evenodd" class="shp1" d="M195.19 60.53L186.25 60.53L184.21 66.13L181.49 66.13L189.48 45.18L192.17 45.18L200.01 66.13L197.2 66.13M187.11 58.07L194.33 58.07L190.82 48.23L190.7 48.23L187.11 58.07Z" />
			<path id="path38" class="shp1" d="M209.32 66.13L206.63 66.13L206.63 47.69L200.44 47.69L200.44 45.18L215.52 45.18L215.52 47.69L209.32 47.69" />
			<path id="path40" fill-rule="evenodd" class="shp1" d="M218.37 55.65C218.37 48.95 222.23 44.88 227.77 44.88C233.99 44.88 237.34 49.31 237.34 55.65C237.34 62.77 233.33 66.43 227.86 66.43C222.05 66.43 218.37 62.29 218.37 55.65ZM234.47 55.65C234.47 49.91 231.9 47.39 227.77 47.39C224.09 47.39 221.24 50.06 221.24 55.65C221.24 61.16 224 63.91 228.13 63.91C232.05 63.91 234.47 61.07 234.47 55.65Z" />
			<path id="path42" class="shp1" d="M263.36 66.13L260.67 66.13L259.38 49.76L254.09 66.13L251.27 66.13L246 49.82L244.69 66.13L241.99 66.13L243.79 45.18L247.08 45.18L252.74 63.19L258.27 45.18L261.57 45.18" />
		</g>
	</g>
</svg>